<!DOCTYPE svg PUBLIC "-//W3C//DTD SVG 1.1//EN" "http://www.w3.org/Graphics/SVG/1.1/DTD/svg11.dtd">
<!-- Uploaded to: SVG Repo, www.svgrepo.com, Transformed by: SVG Repo Mixer Tools -->
<svg width="256px" height="256px" viewBox="0 0 24 24" fill="none" xmlns="http://www.w3.org/2000/svg">
<g id="SVGRepo_bgCarrier" stroke-width="0"/>
<g id="SVGRepo_tracerCarrier" stroke-linecap="round" stroke-linejoin="round"/>
<g id="SVGRepo_iconCarrier"> <path d="M15.1035 4.18158C13.285 2.74188 10.715 2.74188 8.89648 4.18158L4.89648 7.34825C3.69857 8.2966 3 9.74061 3 11.2685V16.0001C3 18.7615 5.23858 21.0001 8 21.0001H16C18.7614 21.0001 21 18.7615 21 16.0001V11.2685C21 9.74061 20.3014 8.2966 19.1035 7.34824L15.1035 4.18158Z" fill="#4296FF"/> <path d="M12 14C9.79086 14 8 15.7909 8 18C8 18.5523 8.44772 19 9 19H15C15.5523 19 16 18.5523 16 18C16 15.7909 14.2091 14 12 14Z" fill="#152C70"/> </g>
</svg>